<?xml version="1.0" encoding="UTF-8"?>
<svg width="30px" height="19px" viewBox="0 0 30 19" version="1.1" xmlns="http://www.w3.org/2000/svg" xmlns:xlink="http://www.w3.org/1999/xlink">
    <!-- Generator: Sketch 47.1 (45422) - http://www.bohemiancoding.com/sketch -->
    <title>Group 6</title>
    <desc>Created with Sketch.</desc>
    <defs></defs>
    <g id="Page-1" stroke="none" stroke-width="1" fill="none" fill-rule="evenodd">
        <g id="Group-6" fill-rule="nonzero">
            <path d="M28.2049565,14.2172105 L24.0158696,14.2172105 C23.8178696,13.6743684 22.9043913,11.1832632 22,8.69973684 C21.4557391,9.37189474 21.0205217,9.88205263 20.7287826,10.2501053 C21.3127391,11.854 21.869913,13.3768947 22.1769565,14.2172105 L14.476,14.2172105 C13.9982174,14.2172105 13.6113043,14.6013684 13.6113043,15.0741053 C13.6113043,15.1048947 13.6127391,15.1356842 13.6165652,15.1655263 C13.6132174,15.1953684 13.6113043,15.2266316 13.6113043,15.2578947 C13.6113043,15.4615789 13.564913,17.2473684 11.9641739,17.2473684 C11.462,17.2473684 11.231,16.8215263 10.6986957,15.3578421 C10.604,15.0835789 6.72913043,3.83594737 6.43069565,2.94210526 C6.34843478,2.69531579 6.23604348,2.36089474 6.05430435,2.00421053 C9.60634783,1.99663158 15.9394783,1.98384211 16.4612609,1.98289474 C17.0763043,1.98384211 17.774087,1.98052632 18.3604348,3.71042105 C18.4068261,3.84731579 20.4494783,9.48036842 20.7287826,10.2501053 C21.1137826,9.77784211 21.5413478,9.25821053 22.0047826,8.69973684 C21.924913,8.47615789 20.0204783,3.22773684 19.9994348,3.16521053 C19.130913,0.604 17.6593043,0.269578947 16.4708261,0.269578947 C15.7290435,0.271473684 3.67256522,0.296578947 3.67256522,0.296578947 C3.58695652,0.301315789 3.49943478,0.296578947 3.40808696,0.296578947 C2.69786957,0.296578947 2.06895652,0.563736842 1.58926087,1.07152632 C0.340521739,2.39168421 0.471565217,4.97563158 0.490695652,5.266 C0.520347826,5.71647368 0.897695652,6.06652632 1.35347826,6.06652632 L5.67265217,6.06463158 C6.89747826,9.62910526 8.94586957,15.5747895 9.06352174,15.9172632 C9.58386957,17.3511053 10.1683043,18.9606842 11.9627391,18.9606842 C12.0287391,18.9606842 12.0923478,18.9573684 12.1559565,18.9545263 C12.1875217,18.9583158 12.2195652,18.9606842 12.2516087,18.9606842 L25.6916957,18.9606842 C27.0686087,18.9606842 28.1313043,18.2724211 28.6817826,17.0233158 C29.0576957,16.1721053 29.0682174,15.3483684 29.0682174,15.2574211 C29.0682174,15.2261579 29.0663043,15.1948947 29.0634348,15.1650526 C29.0663043,15.1352105 29.0682174,15.1044211 29.0682174,15.0736316 C29.0691739,14.6013684 28.6817826,14.2172105 28.2049565,14.2172105 Z M2.22343478,4.35368421 C2.27173913,3.60478947 2.44104348,2.67731579 2.85186957,2.24342105 C3.00634783,2.07952632 3.17326087,2.00989474 3.40904348,2.00989474 C4.1603913,2.00989474 4.46026087,2.49636842 4.78069565,3.45510526 L4.78930435,3.48115789 C4.82995652,3.60336842 4.93517391,3.91126316 5.08630435,4.35321053 L2.22343478,4.35368421 Z M27.0982609,16.3378947 C26.8208696,16.9669474 26.3875652,17.2478421 25.6931304,17.2478421 L14.8543043,17.2478421 C15.0805217,16.813 15.2158696,16.3502105 15.2837826,15.931 L27.2383913,15.931 C27.2044348,16.0612632 27.1594783,16.2005263 27.0982609,16.3378947 Z" id="Shape" fill="#CDC8B9"></path>
            <polygon id="Shape" fill="#3C7101" points="10.3084348 9.27947368 18 9.21331579 17.4112609 7.5 9.70678261 7.56615789"></polygon>
            <polygon id="Shape" fill="#3C7101" points="11.3084348 12.2794737 19 12.2133158 18.4112609 10.5 10.7067826 10.5661579"></polygon>
            <polygon id="Shape" fill="#3C7101" points="16.4072174 4.19826316 8.52452174 4.19826316 9.12617391 5.91157895 16.9959565 5.91157895"></polygon>
        </g>
    </g>
</svg>