<?xml version="1.0" encoding="UTF-8"?>
<svg width="34px" height="28px" viewBox="0 0 34 28" version="1.1" xmlns="http://www.w3.org/2000/svg" xmlns:xlink="http://www.w3.org/1999/xlink">
    <!-- Generator: Sketch 47.1 (45422) - http://www.bohemiancoding.com/sketch -->
    <title>Group 6</title>
    <desc>Created with Sketch.</desc>
    <defs></defs>
    <g id="Page-1" stroke="none" stroke-width="1" fill="none" fill-rule="evenodd">
        <g id="Group-6">
            <polygon id="categories-icon" fill="#CDC8B9" fill-rule="nonzero" points="8.33333333 19.4285714 8.33333333 16 5 16 5 22.8571429 8.33333333 22.858 8.33333333 21.1428571 15 21.1428571 15 28 8.33333333 28 8.33333333 24.5714286 3.33333333 24.5714286 3.33333333 10.8571429 0 10.8571429 0 4 6.66666667 4 6.66666667 10.8571429 5 10.8571429 5 14.2857143 8.33333333 14.2857143 8.33333333 12.5714286 15 12.5714286 15 19.4285714"></polygon>
            <rect id="Rectangle" fill="#305B00" x="8.33414956" y="12.5" width="6.66585044" height="7"></rect>
            <path d="M13.9119245,11.13383 C14.0212645,11.1348211 14.0446235,11.074857 14.0719585,10.9945745 C14.2757286,10.4003847 14.5148056,9.82772858 15,9.42906517 C16,8.60740818 16.8340019,8.92163714 17.050197,9.01827352 C17.3061522,9.13225489 17.3762292,9.37756262 17.2534701,9.62980834 C17.1888601,9.76262141 17.098903,9.88899206 17,10 C15.7326494,11.4049443 15.000852,12.2354847 13.7310164,13.6389422 C13.6669033,13.7103045 13.5968263,13.7846402 13.5585573,13.8698784 C13.3334162,14.3758566 13.2673151,14.9031443 13.4069722,15.4418301 C13.5272463,15.904198 13.8662004,16.1034176 14.3179737,15.9478083 C14.6181618,15.8437383 14.914374,15.6935803 15.1733111,15.510219 C17.6985693,13.7241805 20.2153786,11.927735 22.7321879,10.1307939 C22.7963009,10.0852014 22.8529589,10.0078923 22.8788029,9.93355662 C23.034364,9.49299385 23.1750151,9.04747537 23.3310732,8.60740818 C23.3668572,8.50581609 23.4299762,8.40471957 23.5055203,8.32741047 C23.9612695,7.86306029 24.4224857,7.40416139 24.8856899,6.94774034 C24.963719,6.87043124 25,6.79361771 25,6.68112306 C24.996521,5.18301142 24.998012,3.68539536 24.997515,2.18728372 C24.997515,2.12979747 24.992048,2.07330236 24.988569,2.0088781 C24.926941,2.00540911 24.8787319,2.00045339 24.8320139,2.00045339 C23.1362491,1.99995782 21.4399872,1.99896668 19.7432284,2.00342682 C19.6582413,2.00342682 19.5638113,2.0346478 19.4892612,2.07875364 C18.3188257,2.77354441 17.1493841,3.47031747 15.9834215,4.17254181 C15.2334481,4.62499829 14.4829777,5.07844591 13.7439384,5.54874294 C13.090383,5.96502272 12.6063048,6.53988527 12.3274877,7.26094132 C12.0511555,7.97654608 11.8130924,8.70652241 11.5635983,9.43302974 C11.3737442,9.98559159 11.1923391,10.5411269 11,11.1169806 C11.050197,11.1244141 11.075047,11.1313521 11.1008911,11.1313521 C12.0382335,11.1313521 12.975079,11.1293698 13.9119245,11.13383 Z" id="Shape" fill="#CDC8B9" fill-rule="nonzero"></path>
            <path d="M33.9993485,0 L24,0 L24,9 C24.0183222,8.99789695 24.0361355,8.99474238 24.0539487,8.99474238 L33.9968038,8.99474238 C33.9978217,8.83596215 33.9998575,8.75920084 33.9998575,8.68191377 C34.0003664,5.78811777 33.9993485,2.893796 33.9993485,0 Z" id="Shape" fill="#CDC8B9" fill-rule="nonzero"></path>
        </g>
    </g>
</svg>