<svg width="181" height="50" viewBox="0 0 181 50" xmlns="http://www.w3.org/2000/svg"><title>en-logo-sm</title><path d="M28.688 19.98l-.02 1.02h-6.44l-.12-.64c.387-.253.953-.527 1.7-.82V9.08l-1.54-.22.02-1.02h6.12l.12.64c-.493.293-1.053.567-1.68.82v10.42l1.84.26zm3.156-6.52c0 .28.103.527.31.74.207.213.837.577 1.89 1.09 1.053.513 1.767 1.003 2.14 1.47.373.467.56 1 .56 1.6 0 .893-.357 1.623-1.07 2.19-.713.567-1.65.85-2.81.85-1.307 0-2.627-.353-3.96-1.06l1-2.34c1.227.907 2.467 1.527 3.72 1.86.28-.24.42-.54.42-.9 0-.307-.12-.573-.36-.8-.24-.227-.867-.587-1.88-1.08-1.013-.493-1.697-.963-2.05-1.41a2.427 2.427 0 0 1-.53-1.55c0-.907.393-1.64 1.18-2.2.787-.56 1.793-.84 3.02-.84 1.147 0 2.12.213 2.92.64l.02.56c0 .773-.113 1.493-.34 2.16h-1.54l-.48-1.76a4.432 4.432 0 0 0-1.4-.16c-.507.173-.76.487-.76.94zm10.096 5.96c.627.2 1.113.4 1.46.6l-.08.98h-5.74l-.06-.68c.4-.227.907-.447 1.52-.66V8.1l-1.5-.16-.14-.96a10.501 10.501 0 0 1 3.56-.7l.98.88v12.26zm12.336.62l-2.44 1.28c-.32-.013-.653-.157-1-.43a2.949 2.949 0 0 1-.82-1.01l-2.18 1.38-.62.04c-.84 0-1.533-.247-2.08-.74-.547-.493-.82-1.087-.82-1.78 0-.96.52-1.72 1.56-2.28l3.82-.1v-1.78c0-1.067-.313-1.747-.94-2.04-.613.04-1.113.127-1.5.26l-.36 2.16-1.68.06c-.293-.733-.44-1.54-.44-2.42l.02-.4c.733-.32 1.613-.603 2.64-.85 1.027-.247 1.807-.37 2.34-.37.493 0 .977.133 1.45.4s.857.613 1.15 1.04c.147.253.227.76.24 1.52v4.8c0 .32.167.48.5.48l.98-.12.18.9zm-6.64-.52c.533-.013 1.22-.18 2.06-.5v-1.44l-.5-.02c-1.32 0-1.98.36-1.98 1.08 0 .36.14.653.42.88zm23.056-.08c.653.2 1.12.393 1.4.58l-.08.98h-5.28l-.06-.68 1.12-.52v-4.58c0-1.307-.433-1.96-1.3-1.96-.427 0-1.02.213-1.78.64l.02 5.56c.533.187.953.373 1.26.56l-.08.98h-5.12l-.06-.68 1.1-.5v-4.6c0-1.307-.433-1.96-1.3-1.96-.4 0-.987.207-1.76.62v5.6c.467.147.873.327 1.22.54l-.08.98h-5.44l-.06-.68c.36-.2.847-.413 1.46-.64v-6.72l-1.5-.18-.14-.96a10.501 10.501 0 0 1 3.56-.7l.98.96v.84c1.293-.947 2.38-1.527 3.26-1.74.427.027.877.16 1.35.4a2.6 2.6 0 0 1 1.09 1c.08.16.127.3.14.42 1.347-.987 2.473-1.593 3.38-1.82.613.04 1.187.247 1.72.62.533.373.84.853.92 1.44l.06 1.14v5.06zm20.472 5.2l-5.94-3.28-.74.04c-1.92 0-3.493-.633-4.72-1.9-1.227-1.267-1.84-2.933-1.84-5 0-2.08.603-3.777 1.81-5.09 1.207-1.313 2.737-1.97 4.59-1.97 1.907 0 3.473.663 4.7 1.99 1.227 1.327 1.84 3.05 1.84 5.17 0 1.48-.303 2.737-.91 3.77s-1.423 1.81-2.45 2.33l5 1.26-1.34 2.68zm-10.04-10.5c0 1.613.32 2.933.96 3.96.64 1.027 1.553 1.54 2.74 1.54.307 0 .687-.06 1.14-.18.507-.4.913-1.033 1.22-1.9.307-.867.46-1.833.46-2.9 0-1.613-.327-2.927-.98-3.94s-1.52-1.52-2.6-1.52c-.453 0-.94.093-1.46.28-.44.373-.797.98-1.07 1.82-.273.84-.41 1.787-.41 2.84zm22.696 5.9l-2.46 1.28c-.333-.013-.687-.183-1.06-.51a2.95 2.95 0 0 1-.82-1.15c-1.187.827-2.327 1.38-3.42 1.66-.413-.027-.85-.167-1.31-.42a3.153 3.153 0 0 1-1.11-1c-.187-.28-.287-.9-.3-1.86v-5.08l-1.5-.18-.14-.96a10.501 10.501 0 0 1 3.56-.7l.98.88v5.48c0 1.16.427 1.74 1.28 1.74.48 0 1.053-.167 1.72-.5v-5.78l-1.26-.2-.14-.96c.987-.387 2.093-.607 3.32-.66l.98.88v6.72c0 .36.167.54.5.54l1-.12.18.9zm8.276-3.8l-5.1-.06c.053.987.36 1.753.92 2.3.56.547 1.273.82 2.14.82.72 0 1.573-.24 2.56-.72l.42 1.06-3.14 1.62-.64.04c-1.467 0-2.673-.463-3.62-1.39-.947-.927-1.42-2.103-1.42-3.53 0-1.493.48-2.75 1.44-3.77s2.127-1.53 3.5-1.53c1.2 0 2.183.37 2.95 1.11.767.74 1.15 1.703 1.15 2.89l-1.16 1.16zm-3.64-3.64c-.693.4-1.14 1.133-1.34 2.2l3.46-.18a2.534 2.534 0 0 0-.73-1.44 1.918 1.918 0 0 0-1.39-.58zm8.496.86c0 .28.103.527.31.74.207.213.837.577 1.89 1.09 1.053.513 1.767 1.003 2.14 1.47.373.467.56 1 .56 1.6 0 .893-.357 1.623-1.07 2.19-.713.567-1.65.85-2.81.85-1.307 0-2.627-.353-3.96-1.06l1-2.34c1.227.907 2.467 1.527 3.72 1.86.28-.24.42-.54.42-.9 0-.307-.12-.573-.36-.8-.24-.227-.867-.587-1.88-1.08-1.013-.493-1.697-.963-2.05-1.41a2.427 2.427 0 0 1-.53-1.55c0-.907.393-1.64 1.18-2.2.787-.56 1.793-.84 3.02-.84 1.147 0 2.12.213 2.92.64l.02.56c0 .773-.113 1.493-.34 2.16h-1.54l-.48-1.76a4.432 4.432 0 0 0-1.4-.16c-.507.173-.76.487-.76.94zm10.836 5.6c.373 0 .933-.087 1.68-.26l.22.98-3.08 1.54c-.573.027-1.12-.167-1.64-.58-.52-.413-.787-.88-.8-1.4v-5.78l-1.4.02-.08-1.04c.507-.36 1.047-.68 1.62-.96l1-2.6h1.36l.34 2.6h2.74l.04.86-.98 1.16h-1.74v4.54c0 .347.053.587.16.72.107.133.293.2.56.2zm5.796-9.22a5.472 5.472 0 0 1-2.1-1.62c.44-.88 1.013-1.587 1.72-2.12a5.945 5.945 0 0 1 2.02 1.76c-.373.8-.92 1.46-1.64 1.98zm1.3 9.58c.627.2 1.113.4 1.46.6l-.08.98h-5.74l-.06-.68c.4-.227.907-.447 1.52-.66v-6.7l-1.5-.18-.14-.96a10.501 10.501 0 0 1 3.56-.7l.98.88v7.42zm2.056-3.24c0-1.507.463-2.733 1.39-3.68.927-.947 2.083-1.42 3.47-1.42s2.53.483 3.43 1.45c.9.967 1.35 2.217 1.35 3.75 0 1.547-.443 2.787-1.33 3.72-.887.933-2.017 1.4-3.39 1.4-1.4 0-2.57-.493-3.51-1.48s-1.41-2.233-1.41-3.74zm5.74 3.48c.627-.44.94-1.487.94-3.14 0-1.093-.163-1.99-.49-2.69-.327-.7-.823-1.05-1.49-1.05-.4 0-.74.093-1.02.28-.48.64-.72 1.667-.72 3.08 0 1.067.173 1.937.52 2.61.347.673.873 1.01 1.58 1.01.24 0 .467-.033.68-.1zm15.076-.22c.653.2 1.127.393 1.42.58l-.08.98h-5.28l-.06-.68 1.1-.5v-4.6c0-1.307-.433-1.96-1.3-1.96-.413 0-1.04.233-1.88.7v5.52c.467.147.873.327 1.22.54l-.08.98h-5.44l-.06-.68c.36-.2.847-.413 1.46-.64v-6.72l-1.5-.18-.14-.96a10.501 10.501 0 0 1 3.56-.7l.98.96V13c1.347-.987 2.473-1.593 3.38-1.82.613.04 1.187.247 1.72.62.533.373.84.853.92 1.44l.06 1.14v5.06zm-97.7 13.24c-.973-.6-1.807-.913-2.5-.94.467.893.7 1.827.7 2.8 0 1.48-.523 2.683-1.57 3.61-1.047.927-2.423 1.39-4.13 1.39-1.707 0-3.113-.43-4.22-1.29-1.107-.86-1.66-1.943-1.66-3.25 0-.773.2-1.443.6-2.01.4-.567.927-.997 1.58-1.29-1.173-.6-1.76-1.487-1.76-2.66 0-.973.427-1.783 1.28-2.43.853-.647 1.96-.97 3.32-.97 1.373 0 2.713.28 4.02.84l-.9 2.4-3.72-1.44a2.103 2.103 0 0 0-.93.81c-.233.367-.35.763-.35 1.19 0 .64.233 1.187.7 1.64l2.1.68-.28 1.32c-.893-.013-1.6.207-2.12.66a2.183 2.183 0 0 0-.78 1.72c0 .747.297 1.33.89 1.75.593.42 1.317.63 2.17.63.76 0 1.433-.147 2.02-.44.84-.6 1.26-1.493 1.26-2.68 0-.827-.207-1.6-.62-2.32l-1.22.72-.7-1.26c2.467-1.48 4.3-2.22 5.5-2.22.76 0 1.44.26 2.04.78l-.72 2.26zm19.892 5.3l-.02 1.02h-6.3l-.12-.64c.373-.227.953-.507 1.74-.84l-.84-2.16h-4.76l-.88 2.36 1.84.26-.02 1.02h-5.44l-.12-.64c.4-.253.953-.52 1.66-.8l4.42-10.86-.24-.62 2.62-.72 5.04 12.42 1.42.2zm-6.12-4.14l-1.8-4.72-1.8 4.72h3.6zm16.376 3.6c.653.2 1.127.393 1.42.58l-.08.98h-5.28l-.06-.68 1.1-.5v-4.6c0-1.307-.433-1.96-1.3-1.96-.413 0-1.04.233-1.88.7v5.52c.467.147.873.327 1.22.54l-.08.98h-5.44l-.06-.68c.36-.2.847-.413 1.46-.64v-6.72l-1.5-.18-.14-.96a10.501 10.501 0 0 1 3.56-.7l.98.96V31c1.347-.987 2.473-1.593 3.38-1.82.613.04 1.187.247 1.72.62.533.373.84.853.92 1.44l.06 1.14v5.06zm4.996-5.98c0 .28.103.527.31.74.207.213.837.577 1.89 1.09 1.053.513 1.767 1.003 2.14 1.47.373.467.56 1 .56 1.6 0 .893-.357 1.623-1.07 2.19-.713.567-1.65.85-2.81.85-1.307 0-2.627-.353-3.96-1.06l1-2.34c1.227.907 2.467 1.527 3.72 1.86.28-.24.42-.54.42-.9 0-.307-.12-.573-.36-.8-.24-.227-.867-.587-1.88-1.08-1.013-.493-1.697-.963-2.05-1.41a2.427 2.427 0 0 1-.53-1.55c0-.907.393-1.64 1.18-2.2.787-.56 1.793-.84 3.02-.84 1.147 0 2.12.213 2.92.64l.02.56c0 .773-.113 1.493-.34 2.16h-1.54l-.48-1.76a4.432 4.432 0 0 0-1.4-.16c-.507.173-.76.487-.76.94zm21.096-1.08c-.24.16-.58.333-1.02.52l-2.64 8c-.507.173-1.133.26-1.88.26-.387 0-.747-.033-1.08-.1l-1.18-3.38-1.38 3.22c-.427.16-1.04.24-1.84.24l-1.12-.08-2.7-8.02-1.12-.5V29.5h5.12l.06.88-1.06.54 1.22 3.84.48 2.04h.16l1.28-3.62-1.16-3.32 2.8-.28 1.76 5.18.38 2.04h.16l.96-5.84-1.14-.42.02-1.04h4.86l.06.88zm7.596 3.86l-5.1-.06c.053.987.36 1.753.92 2.3.56.547 1.273.82 2.14.82.72 0 1.573-.24 2.56-.72l.42 1.06-3.14 1.62-.64.04c-1.467 0-2.673-.463-3.62-1.39-.947-.927-1.42-2.103-1.42-3.53 0-1.493.48-2.75 1.44-3.77s2.127-1.53 3.5-1.53c1.2 0 2.183.37 2.95 1.11.767.74 1.15 1.703 1.15 2.89l-1.16 1.16zm-3.64-3.64c-.693.4-1.14 1.133-1.34 2.2l3.46-.18a2.534 2.534 0 0 0-.73-1.44 1.918 1.918 0 0 0-1.39-.58zm11.676-1.2c.32-.12.653-.18 1-.18.693 0 1.253.2 1.68.6-.067 1.467-.313 2.727-.74 3.78h-1.52l-.4-2.24a11.54 11.54 0 0 0-2.02 1.94v4.04c.933.187 1.653.413 2.16.68l-.08.98h-6.4l-.06-.68c.373-.213.867-.427 1.48-.64v-6.72l-1.5-.18-.14-.96a10.501 10.501 0 0 1 3.56-.7l.98.88v1.64l2-2.24z" fill="#2F5703" fill-rule="evenodd"/></svg>